<svg xmlns="http://www.w3.org/2000/svg" viewBox="0 0 100 100" role="img" aria-label="HELM">
  <defs>
    <linearGradient id="g" x1="0" y1="0" x2="0" y2="1">
      <stop offset="0" stop-color="#FFD75E"/>
      <stop offset="1" stop-color="#F0B90B"/>
    </linearGradient>
  </defs>
  <rect width="100" height="100" rx="22" fill="#0B0E11"/>
  <g fill="none" stroke="url(#g)" stroke-width="3" stroke-linecap="round">
    <circle cx="50" cy="50" r="32"/>
    <g stroke-width="2.6">
      <line x1="50" y1="50" x2="50" y2="18" transform="rotate(0 50 50)"/>
      <line x1="50" y1="50" x2="50" y2="18" transform="rotate(45 50 50)"/>
      <line x1="50" y1="50" x2="50" y2="18" transform="rotate(90 50 50)"/>
      <line x1="50" y1="50" x2="50" y2="18" transform="rotate(135 50 50)"/>
      <line x1="50" y1="50" x2="50" y2="18" transform="rotate(180 50 50)"/>
      <line x1="50" y1="50" x2="50" y2="18" transform="rotate(225 50 50)"/>
      <line x1="50" y1="50" x2="50" y2="18" transform="rotate(270 50 50)"/>
      <line x1="50" y1="50" x2="50" y2="18" transform="rotate(315 50 50)"/>
    </g>
  </g>
  <g fill="url(#g)">
    <polygon points="50,4 46.4,15 53.6,15" transform="rotate(0 50 50)"/>
    <polygon points="50,4 46.4,15 53.6,15" transform="rotate(90 50 50)"/>
    <polygon points="50,4 46.4,15 53.6,15" transform="rotate(180 50 50)"/>
    <polygon points="50,4 46.4,15 53.6,15" transform="rotate(270 50 50)"/>
  </g>
  <circle cx="50" cy="50" r="13.5" fill="#0B0E11" stroke="url(#g)" stroke-width="2.4"/>
  <g fill="url(#g)">
    <rect x="45" y="44" width="2.6" height="12" rx="0.6"/>
    <rect x="52.4" y="44" width="2.6" height="12" rx="0.6"/>
    <rect x="46.6" y="48.8" width="6.8" height="2.6" rx="0.6"/>
  </g>
</svg>
